<?xml version="1.0" encoding="UTF-8" standalone="no"?>
<!-- Generator: Adobe Illustrator 22.1.0, SVG Export Plug-In . SVG Version: 6.00 Build 0)  -->

<svg
   xmlns:dc="http://purl.org/dc/elements/1.1/"
   xmlns:cc="http://creativecommons.org/ns#"
   xmlns:rdf="http://www.w3.org/1999/02/22-rdf-syntax-ns#"
   xmlns:svg="http://www.w3.org/2000/svg"
   xmlns="http://www.w3.org/2000/svg"
   xmlns:sodipodi="http://sodipodi.sourceforge.net/DTD/sodipodi-0.dtd"
   xmlns:inkscape="http://www.inkscape.org/namespaces/inkscape"
   version="1.1"
   id="Layer_1"
   x="0px"
   y="0px"
   viewBox="0 0 300 70"
   xml:space="preserve"
   inkscape:version="0.91 r13725"
   sodipodi:docname="logo.svg"
   width="300"
   height="70"><metadata
     id="metadata59"><rdf:RDF><cc:Work
         rdf:about=""><dc:format>image/svg+xml</dc:format><dc:type
           rdf:resource="http://purl.org/dc/dcmitype/StillImage" /><dc:title></dc:title></cc:Work></rdf:RDF></metadata><defs
     id="defs57" /><sodipodi:namedview
     pagecolor="#ffffff"
     bordercolor="#666666"
     borderopacity="1"
     objecttolerance="10"
     gridtolerance="10"
     guidetolerance="10"
     inkscape:pageopacity="0"
     inkscape:pageshadow="2"
     inkscape:window-width="1080"
     inkscape:window-height="1871"
     id="namedview55"
     showgrid="false"
     inkscape:zoom="0.87967914"
     inkscape:cx="189.27356"
     inkscape:cy="85.5"
     inkscape:window-x="1920"
     inkscape:window-y="25"
     inkscape:window-maximized="1"
     inkscape:current-layer="Layer_1" /><style
     type="text/css"
     id="style3">
	.st0{fill:#FFFFFF;}
	.st1{fill:#1ACAEB;}
</style><circle
     class="st0"
     cx="236.85989"
     cy="24.824015"
     r="15"
     id="circle5"
     style="fill:#ffffff" /><circle
     class="st1"
     cx="236.85989"
     cy="24.824015"
     r="7.1999998"
     id="circle7"
     style="fill:#1acaeb" /><path
     class="st0"
     d="m 13.159878,11.024012 16.6,0 c 2.8,0 4.9,0.7 6.4,2.1 1.5,1.4 2.2,3.1 2.2,5.1 0,1.7 -0.5,3.1 -1.6,4.4 -0.7,0.8 -1.7,1.4 -3.1,1.9 2.1,0.5 3.6,1.3 4.5,2.5 1,1.2 1.5,2.7 1.5,4.5 0,1.5 -0.3,2.8 -1,4 -0.7,1.2 -1.6,2.1 -2.8,2.8 -0.7,0.4 -1.9,0.7 -3.4,0.9 -2,0.3 -3.3,0.4 -4,0.4 l -15.3,0 0,-28.6 z m 8.9,11.3 3.8,0 c 1.4,0 2.3,-0.2 2.9,-0.7 0.5,-0.5 0.8,-1.2 0.8,-2.1 0,-0.8 -0.3,-1.5 -0.8,-2 -0.5,-0.5 -1.5,-0.7 -2.8,-0.7 l -3.9,0 0,5.5 z m 0,11.2 4.5,0 c 1.5,0 2.6,-0.3 3.2,-0.8 0.6,-0.5 0.9,-1.3 0.9,-2.2 0,-0.8 -0.3,-1.5 -0.9,-2 -0.6,-0.5 -1.7,-0.8 -3.3,-0.8 l -4.5,0 0.1,5.8 0,0 z"
     id="path9"
     inkscape:connector-curvature="0"
     style="fill:#ffffff" /><path
     class="st0"
     d="m 56.259878,11.024012 8.800004,0 0,21.6 13.8,0 0,7.1 -22.600004,0 0,-28.7 z"
     id="path11"
     inkscape:connector-curvature="0"
     style="fill:#ffffff" /><path
     class="st0"
     d="m 112.55988,11.024012 8.8,0 0,17.1 c 0,1.7 -0.3,3.3 -0.8,4.8 -0.5,1.5 -1.4,2.8 -2.5,3.9 -1.1,1.1 -2.3,1.9 -3.5,2.4 -1.7,0.6 -3.8,1 -6.2,1 -1.4,0 -2.9,-0.1 -4.6,-0.3 -1.6,-0.2 -3,-0.6 -4.099998,-1.2 -1.1,-0.6 -2.1,-1.4 -3,-2.5 -0.9,-1.1 -1.5,-2.2 -1.9,-3.3 -0.5,-1.8 -0.8,-3.4 -0.8,-4.8 l 0,-17.1 8.799998,0 0,17.5 c 0,1.6 0.4,2.8 1.3,3.7 0.9,0.9 2.1,1.3 3.6,1.3 1.5,0 2.7,-0.4 3.6,-1.3 0.9,-0.9 1.3,-2.1 1.3,-3.7 l 0,-17.5 0,0 z"
     id="path13"
     inkscape:connector-curvature="0"
     style="fill:#ffffff" /><path
     class="st0"
     d="m 139.15988,11.024012 23.7,0 0,6.1 -14.8,0 0,4.6 13.8,0 0,5.8 -13.8,0 0,5.6 15.3,0 0,6.5 -24.1,0 -0.1,-28.6 0,0 z"
     id="path15"
     inkscape:connector-curvature="0"
     style="fill:#ffffff" /><path
     class="st0"
     d="m 180.15988,11.024012 13.1,0 c 2.6,0 4.7,0.4 6.3,1.1 1.6,0.7 2.9,1.7 4,3 1,1.3 1.8,2.8 2.3,4.6 0.5,1.7 0.7,3.6 0.7,5.5 0,3.1 -0.3,5.4 -1,7.1 -0.7,1.7 -1.7,3.1 -2.9,4.2 -1.2,1.1 -2.6,1.9 -4,2.3 -1.9,0.5 -3.7,0.8 -5.3,0.8 l -13.1,0 0,-28.6 -0.1,0 z m 8.9,6.5 0,15.6 2.2,0 c 1.8,0 3.2,-0.2 3.9,-0.6 0.7,-0.4 1.4,-1.1 1.8,-2.1 0.4,-1 0.7,-2.7 0.7,-5 0,-3 -0.5,-5.1 -1.5,-6.2 -1,-1.1 -2.6,-1.7 -4.9,-1.7 0,0 -2.2,0 -2.2,0 z"
     id="path17"
     inkscape:connector-curvature="0"
     style="fill:#ffffff" /><path
     class="st0"
     d="m 263.45988,11.024012 26.9,0 0,7.1 -9,0 0,21.6 -8.8,0 0,-21.6 -9,0 0,-7.1 -0.1,0 z"
     id="path19"
     inkscape:connector-curvature="0"
     style="fill:#ffffff" /><g
     id="g21"
     transform="translate(-35.240122,-60.075988)"><path
       class="st0"
       d="m 103.9,115.6 0.5,0 2,7.3 0,0 2.1,-7.3 0.6,0 2.1,7.3 0,0 2,-7.3 0.5,0 -2.3,7.9 -0.4,0 -2.2,-7.4 0,0 -2.1,7.4 -0.5,0 -2.3,-7.9 z"
       id="path23"
       inkscape:connector-curvature="0"
       style="fill:#ffffff" /><path
       class="st0"
       d="m 119.9,115.6 0.5,0 3.1,7.9 -0.5,0 -1,-2.5 -3.8,0 -1,2.5 -0.5,0 3.2,-7.9 z m 2,5 -1.7,-4.4 0,0 -1.7,4.4 3.4,0 z"
       id="path25"
       inkscape:connector-curvature="0"
       style="fill:#ffffff" /><path
       class="st0"
       d="m 125.7,116.1 0,-0.4 6,0 0,0.4 -2.8,0 0,7.4 -0.5,0 0,-7.4 -2.7,0 z"
       id="path27"
       inkscape:connector-curvature="0"
       style="fill:#ffffff" /><path
       class="st0"
       d="m 135.5,115.6 5.3,0 0,0.4 -4.8,0 0,3.1 4.5,0 0,0.4 -4.5,0 0,3.5 4.9,0 0,0.4 -5.3,0 -0.1,-7.8 0,0 z"
       id="path29"
       inkscape:connector-curvature="0"
       style="fill:#ffffff" /><path
       class="st0"
       d="m 145,115.6 3.3,0 c 0.3,0 0.7,0 1,0.1 0.3,0.1 0.6,0.2 0.8,0.3 0.2,0.2 0.4,0.4 0.5,0.6 0.1,0.3 0.2,0.6 0.2,1 0,0.5 -0.1,1 -0.4,1.3 -0.3,0.4 -0.7,0.6 -1.2,0.7 l 0,0 c 0.4,0 0.6,0.1 0.9,0.3 0.3,0.2 0.4,0.3 0.5,0.5 0.1,0.2 0.2,0.4 0.2,0.7 0,0.3 0,0.5 0,0.8 0,0.2 0,0.3 0,0.5 0,0.2 0,0.3 0,0.4 0,0.1 0,0.2 0.1,0.4 0,0.1 0.1,0.2 0.1,0.3 l -0.5,0 c -0.1,-0.2 -0.2,-0.4 -0.2,-0.6 0,-0.2 0,-0.5 0,-0.8 0,-0.3 0,-0.5 0,-0.8 0,-0.3 -0.1,-0.5 -0.2,-0.7 -0.1,-0.2 -0.3,-0.4 -0.6,-0.5 -0.3,-0.1 -0.6,-0.2 -1.1,-0.2 l -2.8,0 0,3.6 -0.6,0 0,-7.9 z m 3.3,3.9 c 0.3,0 0.6,0 0.8,-0.1 0.2,-0.1 0.5,-0.2 0.6,-0.3 0.2,-0.1 0.3,-0.3 0.4,-0.6 0.1,-0.2 0.2,-0.5 0.2,-0.8 0,-0.3 -0.1,-0.5 -0.2,-0.8 -0.1,-0.3 -0.3,-0.4 -0.4,-0.5 -0.2,-0.1 -0.4,-0.2 -0.6,-0.3 -0.2,-0.1 -0.5,-0.1 -0.8,-0.1 l -2.8,0 0,3.4 2.8,0 0,0.1 z"
       id="path31"
       inkscape:connector-curvature="0"
       style="fill:#ffffff" /><path
       class="st0"
       d="m 168.7,119.6 c 0,0.6 -0.1,1.1 -0.3,1.6 -0.2,0.5 -0.4,0.9 -0.7,1.3 -0.3,0.4 -0.7,0.7 -1.2,0.9 -0.5,0.2 -1,0.3 -1.6,0.3 -0.6,0 -1.1,-0.1 -1.6,-0.3 -0.5,-0.2 -0.9,-0.5 -1.2,-0.9 -0.3,-0.4 -0.6,-0.8 -0.7,-1.3 -0.2,-0.5 -0.3,-1 -0.3,-1.6 0,-0.6 0.1,-1.1 0.3,-1.6 0.2,-0.5 0.4,-0.9 0.7,-1.3 0.3,-0.4 0.7,-0.7 1.2,-0.9 0.5,-0.2 1,-0.3 1.6,-0.3 0.6,0 1.1,0.1 1.6,0.3 0.5,0.2 0.9,0.5 1.2,0.9 0.3,0.4 0.6,0.8 0.7,1.3 0.2,0.5 0.3,1 0.3,1.6 z m -7,0 c 0,0.5 0.1,1 0.2,1.4 0.1,0.4 0.4,0.8 0.6,1.2 0.3,0.3 0.6,0.6 1,0.8 0.4,0.2 0.9,0.3 1.4,0.3 0.5,0 1,-0.1 1.4,-0.3 0.4,-0.2 0.7,-0.5 1,-0.8 0.3,-0.3 0.5,-0.7 0.6,-1.2 0.1,-0.4 0.2,-0.9 0.2,-1.4 0,-0.5 -0.1,-1 -0.2,-1.4 -0.1,-0.4 -0.4,-0.8 -0.6,-1.2 -0.3,-0.3 -0.6,-0.6 -1,-0.8 -0.4,-0.2 -0.9,-0.3 -1.4,-0.3 -0.5,0 -1,0.1 -1.4,0.3 -0.4,0.2 -0.7,0.5 -1,0.8 -0.3,0.3 -0.5,0.7 -0.6,1.2 -0.1,0.4 -0.2,0.9 -0.2,1.4 z"
       id="path33"
       inkscape:connector-curvature="0"
       style="fill:#ffffff" /><path
       class="st0"
       d="m 173,115.6 3.1,0 c 0.5,0 0.9,0.1 1.2,0.2 0.3,0.1 0.6,0.3 0.8,0.5 0.2,0.2 0.3,0.4 0.4,0.7 0.1,0.2 0.1,0.5 0.1,0.7 0,0.2 0,0.4 -0.1,0.6 -0.1,0.2 -0.2,0.4 -0.3,0.5 -0.1,0.1 -0.3,0.3 -0.5,0.4 -0.2,0.1 -0.4,0.2 -0.6,0.2 l 0,0 c 0.1,0 0.2,0 0.4,0.1 0.2,0.1 0.4,0.1 0.6,0.3 0.2,0.1 0.4,0.3 0.6,0.6 0.2,0.3 0.2,0.6 0.2,1 0,0.4 -0.1,0.7 -0.2,0.9 -0.1,0.3 -0.3,0.5 -0.6,0.7 -0.2,0.2 -0.5,0.3 -0.9,0.4 -0.3,0.1 -0.7,0.1 -1.1,0.1 l -3.1,0 0,-7.9 z m 3.2,3.6 c 0.7,0 1.2,-0.1 1.5,-0.4 0.3,-0.3 0.5,-0.7 0.5,-1.2 0,-0.3 -0.1,-0.5 -0.2,-0.7 -0.1,-0.2 -0.3,-0.4 -0.4,-0.5 -0.2,-0.1 -0.4,-0.2 -0.6,-0.3 -0.2,-0.1 -0.5,-0.1 -0.8,-0.1 l -2.7,0 0,3.1 2.7,0.1 0,0 z m 0,3.9 c 0.7,0 1.3,-0.1 1.7,-0.4 0.4,-0.3 0.6,-0.7 0.6,-1.3 0,-0.3 -0.1,-0.6 -0.2,-0.8 -0.1,-0.2 -0.3,-0.4 -0.5,-0.5 -0.2,-0.1 -0.5,-0.2 -0.7,-0.3 -0.3,0 -0.5,-0.1 -0.8,-0.1 l -2.7,0 0,3.5 2.6,-0.1 0,0 z"
       id="path35"
       inkscape:connector-curvature="0"
       style="fill:#ffffff" /><path
       class="st0"
       d="m 188.4,117.9 c 0,-0.3 -0.1,-0.6 -0.2,-0.9 -0.1,-0.2 -0.3,-0.5 -0.5,-0.6 -0.2,-0.2 -0.5,-0.3 -0.8,-0.4 -0.3,-0.1 -0.6,-0.1 -1,-0.1 -0.2,0 -0.5,0 -0.7,0.1 -0.2,0.1 -0.5,0.1 -0.7,0.3 -0.2,0.1 -0.4,0.3 -0.5,0.5 -0.1,0.2 -0.2,0.5 -0.2,0.8 0,0.3 0.1,0.6 0.2,0.8 0.2,0.2 0.4,0.4 0.6,0.5 0.2,0.1 0.5,0.2 0.9,0.3 0.4,0.1 0.6,0.1 1,0.2 0.3,0.1 0.7,0.1 1,0.2 0.3,0.1 0.6,0.2 0.9,0.4 0.3,0.2 0.5,0.4 0.6,0.6 0.1,0.2 0.2,0.6 0.2,1 0,0.4 -0.1,0.8 -0.3,1 -0.2,0.3 -0.4,0.5 -0.7,0.7 -0.3,0.2 -0.6,0.3 -0.9,0.4 -0.3,0.1 -0.6,0.1 -0.9,0.1 -0.5,0 -0.9,0 -1.3,-0.1 -0.4,-0.1 -0.8,-0.3 -1.1,-0.5 -0.3,-0.2 -0.5,-0.5 -0.7,-0.9 -0.2,-0.4 -0.3,-0.8 -0.2,-1.3 l 0.5,0 c 0,0.4 0,0.8 0.2,1.1 0.1,0.3 0.4,0.5 0.6,0.7 0.3,0.2 0.6,0.3 0.9,0.4 0.3,0.1 0.7,0.1 1.1,0.1 0.2,0 0.5,0 0.8,-0.1 0.3,-0.1 0.5,-0.2 0.7,-0.3 0.2,-0.1 0.4,-0.3 0.6,-0.5 0.2,-0.2 0.2,-0.5 0.2,-0.9 0,-0.3 -0.1,-0.6 -0.2,-0.8 -0.2,-0.2 -0.4,-0.4 -0.6,-0.5 -0.3,-0.1 -0.5,-0.2 -0.9,-0.3 -0.3,-0.1 -0.6,-0.1 -1,-0.2 -0.3,-0.1 -0.7,-0.1 -1,-0.2 -0.3,-0.1 -0.6,-0.2 -0.9,-0.4 -0.2,-0.2 -0.5,-0.3 -0.6,-0.6 -0.2,-0.2 -0.2,-0.5 -0.2,-0.9 0,-0.4 0.1,-0.7 0.2,-1 0.1,-0.3 0.4,-0.5 0.6,-0.6 0.3,-0.2 0.5,-0.3 0.9,-0.4 0.3,-0.1 0.6,-0.1 0.9,-0.1 0.4,0 0.8,0 1.1,0.1 0.4,0.1 0.7,0.2 0.9,0.4 0.3,0.2 0.5,0.4 0.6,0.8 0.2,0.3 0.3,0.7 0.3,1.1 0,0 -0.4,0 -0.4,0 z"
       id="path37"
       inkscape:connector-curvature="0"
       style="fill:#ffffff" /><path
       class="st0"
       d="m 193.5,115.6 5.3,0 0,0.4 -4.8,0 0,3.1 4.5,0 0,0.4 -4.5,0 0,3.5 4.9,0 0,0.4 -5.3,0 -0.1,-7.8 0,0 z"
       id="path39"
       inkscape:connector-curvature="0"
       style="fill:#ffffff" /><path
       class="st0"
       d="m 203,115.6 3.3,0 c 0.3,0 0.7,0 1,0.1 0.3,0.1 0.6,0.2 0.8,0.3 0.2,0.2 0.4,0.4 0.5,0.6 0.1,0.3 0.2,0.6 0.2,1 0,0.5 -0.1,1 -0.4,1.3 -0.3,0.4 -0.7,0.6 -1.2,0.7 l 0,0 c 0.4,0 0.6,0.1 0.9,0.3 0.3,0.2 0.4,0.3 0.5,0.5 0.1,0.2 0.2,0.4 0.2,0.7 0,0.3 0,0.5 0,0.8 0,0.2 0,0.3 0,0.5 0,0.2 0,0.3 0,0.4 0,0.1 0,0.2 0.1,0.4 0,0.1 0.1,0.2 0.1,0.3 l -0.5,0 c -0.1,-0.2 -0.2,-0.4 -0.2,-0.6 0,-0.2 0,-0.5 0,-0.8 0,-0.3 0,-0.5 0,-0.8 0,-0.3 -0.1,-0.5 -0.2,-0.7 -0.1,-0.2 -0.3,-0.4 -0.6,-0.5 -0.3,-0.1 -0.6,-0.2 -1.1,-0.2 l -2.8,0 0,3.6 -0.6,0 0,-7.9 z m 3.2,3.9 c 0.3,0 0.6,0 0.8,-0.1 0.2,-0.1 0.5,-0.2 0.6,-0.3 0.2,-0.1 0.3,-0.3 0.4,-0.6 0.1,-0.2 0.2,-0.5 0.2,-0.8 0,-0.3 -0.1,-0.5 -0.2,-0.8 -0.1,-0.2 -0.3,-0.4 -0.4,-0.5 -0.2,-0.1 -0.4,-0.2 -0.6,-0.3 -0.2,-0.1 -0.5,-0.1 -0.8,-0.1 l -2.8,0 0,3.4 2.8,0 0,0.1 z"
       id="path41"
       inkscape:connector-curvature="0"
       style="fill:#ffffff" /><path
       class="st0"
       d="m 215.6,123.1 0,0 2.7,-7.4 0.5,0 -2.9,7.9 -0.6,0 -2.9,-7.9 0.5,0 2.7,7.4 z"
       id="path43"
       inkscape:connector-curvature="0"
       style="fill:#ffffff" /><path
       class="st0"
       d="m 224.4,115.6 0.5,0 3.1,7.9 -0.5,0 -1,-2.5 -3.8,0 -1,2.5 -0.5,0 3.2,-7.9 z m 2,5 -1.7,-4.4 0,0 -1.7,4.4 3.4,0 z"
       id="path45"
       inkscape:connector-curvature="0"
       style="fill:#ffffff" /><path
       class="st0"
       d="m 230.2,116.1 0,-0.4 6,0 0,0.4 -2.8,0 0,7.4 -0.4,0 0,-7.4 -2.8,0 z"
       id="path47"
       inkscape:connector-curvature="0"
       style="fill:#ffffff" /><path
       class="st0"
       d="m 246.7,119.6 c 0,0.6 -0.1,1.1 -0.3,1.6 -0.2,0.5 -0.4,0.9 -0.7,1.3 -0.3,0.4 -0.7,0.7 -1.2,0.9 -0.5,0.2 -1,0.3 -1.6,0.3 -0.6,0 -1.1,-0.1 -1.6,-0.3 -0.5,-0.2 -0.9,-0.5 -1.2,-0.9 -0.3,-0.4 -0.6,-0.8 -0.7,-1.3 -0.1,-0.5 -0.3,-1 -0.3,-1.6 0,-0.6 0.1,-1.1 0.3,-1.6 0.2,-0.5 0.4,-0.9 0.7,-1.3 0.3,-0.4 0.7,-0.7 1.2,-0.9 0.5,-0.2 1,-0.3 1.6,-0.3 0.6,0 1.1,0.1 1.6,0.3 0.5,0.2 0.9,0.5 1.2,0.9 0.3,0.4 0.6,0.8 0.7,1.3 0.2,0.5 0.3,1 0.3,1.6 z m -7,0 c 0,0.5 0.1,1 0.2,1.4 0.1,0.4 0.4,0.8 0.6,1.2 0.3,0.3 0.6,0.6 1,0.8 0.4,0.2 0.9,0.3 1.4,0.3 0.5,0 1,-0.1 1.4,-0.3 0.4,-0.2 0.7,-0.5 1,-0.8 0.3,-0.3 0.5,-0.7 0.6,-1.2 0.1,-0.4 0.2,-0.9 0.2,-1.4 0,-0.5 -0.1,-1 -0.2,-1.4 -0.1,-0.4 -0.4,-0.8 -0.6,-1.2 -0.3,-0.3 -0.6,-0.6 -1,-0.8 -0.4,-0.2 -0.9,-0.3 -1.4,-0.3 -0.5,0 -1,0.1 -1.4,0.3 -0.4,0.2 -0.7,0.5 -1,0.8 -0.3,0.3 -0.5,0.7 -0.6,1.2 -0.1,0.4 -0.2,0.9 -0.2,1.4 z"
       id="path49"
       inkscape:connector-curvature="0"
       style="fill:#ffffff" /><path
       class="st0"
       d="m 251,115.6 3.3,0 c 0.3,0 0.7,0 1,0.1 0.3,0.1 0.6,0.2 0.8,0.3 0.2,0.2 0.4,0.4 0.5,0.6 0.1,0.3 0.2,0.6 0.2,1 0,0.5 -0.1,1 -0.4,1.3 -0.3,0.4 -0.7,0.6 -1.2,0.7 l 0,0 c 0.4,0 0.6,0.1 0.9,0.3 0.3,0.2 0.4,0.3 0.5,0.5 0.1,0.2 0.2,0.4 0.2,0.7 0,0.3 0,0.5 0,0.8 0,0.2 0,0.3 0,0.5 0,0.2 0,0.3 0,0.4 0,0.1 0,0.2 0.1,0.4 0,0.1 0.1,0.2 0.1,0.3 l -0.5,0 c -0.1,-0.2 -0.2,-0.4 -0.2,-0.6 0,-0.2 0,-0.5 0,-0.8 0,-0.3 0,-0.5 0,-0.8 0,-0.3 -0.1,-0.5 -0.2,-0.7 -0.1,-0.2 -0.3,-0.4 -0.6,-0.5 -0.3,-0.1 -0.6,-0.2 -1.1,-0.2 l -2.8,0 0,3.6 -0.6,0 0,-7.9 z m 3.3,3.9 c 0.3,0 0.6,0 0.8,-0.1 0.2,-0.1 0.5,-0.2 0.6,-0.3 0.2,-0.1 0.3,-0.3 0.4,-0.6 0.1,-0.2 0.2,-0.5 0.2,-0.8 0,-0.3 -0.1,-0.5 -0.2,-0.8 -0.1,-0.2 -0.3,-0.4 -0.4,-0.5 -0.2,-0.1 -0.4,-0.2 -0.6,-0.3 -0.2,-0.1 -0.5,-0.1 -0.8,-0.1 l -2.8,0 0,3.4 2.8,0 0,0.1 z"
       id="path51"
       inkscape:connector-curvature="0"
       style="fill:#ffffff" /><path
       class="st0"
       d="m 266.5,115.6 0.5,0 -3.2,4.6 0,3.3 -0.5,0 0,-3.3 -3.1,-4.6 0.6,0 2.8,4.2 2.9,-4.2 z"
       id="path53"
       inkscape:connector-curvature="0"
       style="fill:#ffffff" /></g></svg>